HIERARCHY
ROOT Hips
{
	OFFSET 0.000000 97.167313 0.000000
	CHANNELS 6 Xposition Yposition Zposition Xrotation Yrotation Zrotation
	JOINT Spine
	{
		OFFSET 0.000000 13.784798 0.064400
		CHANNELS 3 Xrotation Yrotation Zrotation
		JOINT Spine1
		{
			OFFSET 0.000000 12.037903 0.404700
			CHANNELS 3 Xrotation Yrotation Zrotation
			JOINT Spine2
			{
				OFFSET 0.000000 17.795601 0.420200
				CHANNELS 3 Xrotation Yrotation Zrotation
				JOINT Neck
				{
					OFFSET 0.000000 39.131302 11.954600
					CHANNELS 3 Xrotation Yrotation Zrotation
					JOINT Head
					{
						OFFSET 0.000000 14.456192 15.627699
						CHANNELS 3 Xrotation Yrotation Zrotation
						JOINT HeadTop_End
						{
							OFFSET 0.000000 15.703506 7.603401
							CHANNELS 3 Xrotation Yrotation Zrotation
							End Site
							{
								OFFSET 0.000000 17.447403 0.000000
							}
						}
					}
				}
				JOINT LeftShoulder
				{
					OFFSET 17.399500 24.608795 1.168800
					CHANNELS 3 Xrotation Yrotation Zrotation
					JOINT LeftArm
					{
						OFFSET 18.980635 5.765305 1.818600
						CHANNELS 3 Xrotation Yrotation Zrotation
						JOINT LeftForeArm
						{
							OFFSET 49.290169 0.000000 0.000000
							CHANNELS 3 Xrotation Yrotation Zrotation
							JOINT LeftHand
							{
								OFFSET 31.562012 0.000000 0.000000
								CHANNELS 3 Xrotation Yrotation Zrotation
								JOINT LeftHandThumb1
								{
									OFFSET 6.133995 -4.388519 7.076070
									CHANNELS 3 Xrotation Yrotation Zrotation
									JOINT LeftHandThumb2
									{
										OFFSET 6.037666 -3.485840 3.485847
										CHANNELS 3 Xrotation Yrotation Zrotation
										JOINT LeftHandThumb3
										{
											OFFSET 6.496506 -3.750763 3.750761
											CHANNELS 3 Xrotation Yrotation Zrotation
											JOINT LeftHandThumb4
											{
												OFFSET 5.616882 -3.242905 3.242910
												CHANNELS 3 Xrotation Yrotation Zrotation
												End Site
												{
													OFFSET -1.254608 7.132141 0.375429
												}
											}
										}
									}
								}
								JOINT LeftHandPinky1
								{
									OFFSET 18.920792 -0.453171 -11.426712
									CHANNELS 3 Xrotation Yrotation Zrotation
									JOINT LeftHandPinky2
									{
										OFFSET 4.919586 0.000000 0.000000
										CHANNELS 3 Xrotation Yrotation Zrotation
										JOINT LeftHandPinky3
										{
											OFFSET 5.233047 0.000000 0.000000
											CHANNELS 3 Xrotation Yrotation Zrotation
											JOINT LeftHandPinky4
											{
												OFFSET 5.571716 0.000000 0.000000
												CHANNELS 3 Xrotation Yrotation Zrotation
												End Site
												{
													OFFSET -3.459808 4.342407 -0.466164
												}
											}
										}
									}
								}
								JOINT LeftHandRing1
								{
									OFFSET 22.726120 -0.094986 -6.500475
									CHANNELS 3 Xrotation Yrotation Zrotation
									JOINT LeftHandRing2
									{
										OFFSET 6.408615 0.000000 0.000000
										CHANNELS 3 Xrotation Yrotation Zrotation
										JOINT LeftHandRing3
										{
											OFFSET 6.150223 0.000000 0.000000
											CHANNELS 3 Xrotation Yrotation Zrotation
											JOINT LeftHandRing4
											{
												OFFSET 6.145386 0.000000 0.000000
												CHANNELS 3 Xrotation Yrotation Zrotation
												End Site
												{
													OFFSET -3.671402 4.923981 -0.202372
												}
											}
										}
									}
								}
								JOINT LeftHandMiddle1
								{
									OFFSET 23.373947 0.000000 0.000001
									CHANNELS 3 Xrotation Yrotation Zrotation
									JOINT LeftHandMiddle2
									{
										OFFSET 6.996567 0.000000 0.000000
										CHANNELS 3 Xrotation Yrotation Zrotation
										JOINT LeftHandMiddle3
										{
											OFFSET 7.015945 0.000000 0.000000
											CHANNELS 3 Xrotation Yrotation Zrotation
											JOINT LeftHandMiddle4
											{
												OFFSET 7.721573 0.000000 0.000000
												CHANNELS 3 Xrotation Yrotation Zrotation
												End Site
												{
													OFFSET -4.651108 6.158463 0.251582
												}
											}
										}
									}
								}
								JOINT LeftHandIndex1
								{
									OFFSET 21.310577 -0.490082 6.209344
									CHANNELS 3 Xrotation Yrotation Zrotation
									JOINT LeftHandIndex2
									{
										OFFSET 7.536453 0.000000 0.000000
										CHANNELS 3 Xrotation Yrotation Zrotation
										JOINT LeftHandIndex3
										{
											OFFSET 7.512344 0.000000 0.000000
											CHANNELS 3 Xrotation Yrotation Zrotation
											JOINT LeftHandIndex4
											{
												OFFSET 10.212402 0.000000 0.000001
												CHANNELS 3 Xrotation Yrotation Zrotation
												End Site
												{
													OFFSET -5.180801 8.690506 1.388433
												}
											}
										}
									}
								}
							}
						}
					}
				}
				JOINT RightShoulder
				{
					OFFSET -17.399500 24.608795 1.168800
					CHANNELS 3 Xrotation Yrotation Zrotation
					JOINT RightArm
					{
						OFFSET -18.980635 5.765305 1.818600
						CHANNELS 3 Xrotation Yrotation Zrotation
						JOINT RightForeArm
						{
							OFFSET -49.290169 0.000000 0.000000
							CHANNELS 3 Xrotation Yrotation Zrotation
							JOINT RightHand
							{
								OFFSET -31.562012 0.000000 0.000000
								CHANNELS 3 Xrotation Yrotation Zrotation
								JOINT RightHandThumb1
								{
									OFFSET -6.133995 -4.388519 7.076070
									CHANNELS 3 Xrotation Yrotation Zrotation
									JOINT RightHandThumb2
									{
										OFFSET -6.037666 -3.485840 3.485847
										CHANNELS 3 Xrotation Yrotation Zrotation
										JOINT RightHandThumb3
										{
											OFFSET -6.496506 -3.750763 3.750761
											CHANNELS 3 Xrotation Yrotation Zrotation
											JOINT RightHandThumb4
											{
												OFFSET -5.616882 -3.242905 3.242910
												CHANNELS 3 Xrotation Yrotation Zrotation
												End Site
												{
													OFFSET 1.254608 7.132141 0.375429
												}
											}
										}
									}
								}
								JOINT RightHandIndex1
								{
									OFFSET -21.310577 -0.490082 6.209344
									CHANNELS 3 Xrotation Yrotation Zrotation
									JOINT RightHandIndex2
									{
										OFFSET -7.536453 0.000000 0.000000
										CHANNELS 3 Xrotation Yrotation Zrotation
										JOINT RightHandIndex3
										{
											OFFSET -7.512344 0.000000 0.000000
											CHANNELS 3 Xrotation Yrotation Zrotation
											JOINT RightHandIndex4
											{
												OFFSET -10.212402 0.000000 0.000001
												CHANNELS 3 Xrotation Yrotation Zrotation
												End Site
												{
													OFFSET 5.180801 8.690506 1.388433
												}
											}
										}
									}
								}
								JOINT RightHandMiddle1
								{
									OFFSET -23.373947 0.000000 0.000001
									CHANNELS 3 Xrotation Yrotation Zrotation
									JOINT RightHandMiddle2
									{
										OFFSET -6.996567 0.000000 0.000000
										CHANNELS 3 Xrotation Yrotation Zrotation
										JOINT RightHandMiddle3
										{
											OFFSET -7.015945 0.000000 0.000000
											CHANNELS 3 Xrotation Yrotation Zrotation
											JOINT RightHandMiddle4
											{
												OFFSET -7.721573 0.000000 0.000000
												CHANNELS 3 Xrotation Yrotation Zrotation
												End Site
												{
													OFFSET 4.651108 6.158463 0.251582
												}
											}
										}
									}
								}
								JOINT RightHandRing1
								{
									OFFSET -22.726120 -0.094986 -6.500475
									CHANNELS 3 Xrotation Yrotation Zrotation
									JOINT RightHandRing2
									{
										OFFSET -6.408615 0.000000 0.000000
										CHANNELS 3 Xrotation Yrotation Zrotation
										JOINT RightHandRing3
										{
											OFFSET -6.150223 0.000000 0.000000
											CHANNELS 3 Xrotation Yrotation Zrotation
											JOINT RightHandRing4
											{
												OFFSET -6.145386 0.000000 0.000000
												CHANNELS 3 Xrotation Yrotation Zrotation
												End Site
												{
													OFFSET 3.671402 4.923981 -0.202372
												}
											}
										}
									}
								}
								JOINT RightHandPinky1
								{
									OFFSET -18.920792 -0.453171 -11.426712
									CHANNELS 3 Xrotation Yrotation Zrotation
									JOINT RightHandPinky2
									{
										OFFSET -4.919586 0.000000 0.000000
										CHANNELS 3 Xrotation Yrotation Zrotation
										JOINT RightHandPinky3
										{
											OFFSET -5.233047 0.000000 0.000000
											CHANNELS 3 Xrotation Yrotation Zrotation
											JOINT RightHandPinky4
											{
												OFFSET -5.571716 0.000000 0.000000
												CHANNELS 3 Xrotation Yrotation Zrotation
												End Site
												{
													OFFSET 3.459808 4.342407 -0.466164
												}
											}
										}
									}
								}
							}
						}
					}
				}
			}
		}
	}
	JOINT LeftUpLeg
	{
		OFFSET 19.899099 -7.885101 -3.429500
		CHANNELS 3 Xrotation Yrotation Zrotation
		JOINT LeftLeg
		{
			OFFSET 1.745560 -36.997807 10.304700
			CHANNELS 3 Xrotation Yrotation Zrotation
			JOINT LeftFoot
			{
				OFFSET -1.745558 -29.803308 -13.615400
				CHANNELS 3 Xrotation Yrotation Zrotation
				JOINT LeftToeBase
				{
					OFFSET 1.181900 -18.539904 15.226099
					CHANNELS 3 Xrotation Yrotation Zrotation
					JOINT LeftToe_End
					{
						OFFSET -0.863701 1.402801 16.534700
						CHANNELS 3 Xrotation Yrotation Zrotation
						End Site
						{
							OFFSET 0.000000 16.616566 0.000000
						}
					}
				}
			}
		}
	}
	JOINT RightUpLeg
	{
		OFFSET -19.899099 -7.885101 -3.429500
		CHANNELS 3 Xrotation Yrotation Zrotation
		JOINT RightLeg
		{
			OFFSET -1.745560 -36.997807 10.304700
			CHANNELS 3 Xrotation Yrotation Zrotation
			JOINT RightFoot
			{
				OFFSET 1.745558 -29.803308 -13.615400
				CHANNELS 3 Xrotation Yrotation Zrotation
				JOINT RightToeBase
				{
					OFFSET -1.181900 -18.539904 15.226099
					CHANNELS 3 Xrotation Yrotation Zrotation
					JOINT RightToe_End
					{
						OFFSET 0.863701 1.402801 16.534700
						CHANNELS 3 Xrotation Yrotation Zrotation
						End Site
						{
							OFFSET 0.000000 16.616566 0.000000
						}
					}
				}
			}
		}
	}
}
MOTION
Frames: 5
Frame Time: 0.033333
1.282768 89.021584 3.109507 8.357810 3.194245 3.755799 10.940787 -0.239741 -1.112608 2.146742 -0.031529 -0.478931 2.146506 -0.023608 -0.483250 3.259961 -0.026636 -0.102188 20.020287 -0.090517 -1.035558 0.000000 -0.000000 0.000000 0.742833 8.952363 -13.053724 10.737599 -6.254792 -54.002631 0.000009 -32.994267 -0.000011 3.018197 -1.471486 -4.081456 -3.927794 -5.157639 8.886219 21.372789 38.839819 0.020860 -0.475023 -2.422453 17.057011 0.000004 0.000004 0.000002 2.291890 7.103821 -41.285908 3.978826 5.544416 -71.308029 0.000001 -0.000579 0.005640 -0.000001 0.000000 -0.000002 2.297560 7.098882 -41.286632 3.978850 5.544427 -71.308029 0.000007 -0.000578 0.005639 -0.000000 -0.000001 0.000003 2.297563 7.098885 -41.286612 3.978842 5.544427 -71.308036 0.000004 -0.000579 0.005644 -0.000001 0.000001 -0.000001 1.070386 5.654743 -31.106468 2.579643 4.853690 -55.959012 -0.000001 -0.001538 0.014981 0.000001 0.000001 -0.000001 1.078064 -8.352863 11.371666 3.407879 18.890949 61.317313 0.000003 23.538782 -0.000001 1.182687 -2.960230 -1.406689 -4.704649 7.165784 -8.305787 21.726362 -40.852949 0.039662 0.960365 -3.700275 -18.695727 0.000001 -0.000003 -0.000001 0.850710 -4.913045 30.449328 2.055553 -3.864079 56.009938 0.000004 0.001227 -0.015025 0.000001 0.000000 0.000001 1.937112 -6.200616 40.635326 3.168682 -4.413387 71.341346 -0.000003 0.000462 -0.005654 0.000001 0.000003 -0.000003 1.937109 -6.200615 40.635333 3.168690 -4.413384 71.341353 -0.000003 0.000461 -0.005653 0.000000 0.000001 -0.000001 1.914763 -6.219671 40.632911 3.168683 -4.413384 71.341346 0.000000 0.000462 -0.005652 -0.000001 -0.000000 0.000002 -16.996825 4.777517 1.868895 25.058796 -4.612074 -1.526893 -11.196543 0.359912 -2.581905 -7.680893 0.000000 0.000001 -0.000000 0.000000 0.000000 -22.529118 -8.800468 -1.884364 30.563830 0.248492 3.086064 -16.523549 1.616891 -7.252487 -5.442003 -0.000000 -0.000001 0.000000 -0.000000 0.000000 
3.012592 86.897713 3.059745 8.471034 2.269122 3.925103 11.182323 -0.762029 -1.460170 2.206529 -0.154952 -0.456122 2.206604 -0.149624 -0.457567 3.245778 0.025026 -0.091162 19.322525 0.198639 -1.178479 0.000001 0.000000 -0.000000 0.754705 9.027538 -13.107378 10.907874 -4.893686 -53.956671 0.000005 -33.824476 -0.000026 2.660975 -1.348272 -3.737933 -3.927799 -5.157637 8.886217 21.265483 38.715350 0.128320 -0.453246 -2.486207 17.140910 -0.000001 0.000002 -0.000003 2.323484 7.151610 -40.915552 3.958612 5.537573 -71.098567 0.000301 0.058942 -0.575217 0.000001 -0.000000 -0.000000 2.282550 7.095603 -40.845115 3.953042 5.535658 -71.040784 0.000284 0.058023 -0.566190 0.000001 0.000002 0.000002 2.335313 7.157496 -40.804496 3.950643 5.534851 -71.015977 0.000273 0.056919 -0.555425 -0.000003 0.000000 0.000004 1.079902 5.653883 -30.550166 2.544931 4.830150 -55.547719 0.000254 0.054474 -0.531613 -0.000001 0.000003 0.000001 1.061348 -8.436723 11.266252 2.834865 18.363245 61.717521 -0.000004 24.492999 0.000029 1.299622 -2.617788 -1.685092 -4.704647 7.165786 -8.305787 21.940721 -41.175703 0.317372 1.001295 -3.648466 -18.757842 0.000007 -0.000002 0.000003 0.823207 -4.842496 30.267143 2.064450 -3.870050 56.141665 0.000015 -0.009435 0.116052 -0.000002 0.000004 0.000001 1.850298 -6.098900 40.678032 3.158306 -4.409878 71.206518 0.000016 -0.012963 0.159021 -0.000002 -0.000001 -0.000007 1.827358 -6.072212 40.684172 3.162318 -4.411237 71.258578 0.000026 -0.014082 0.172910 -0.000000 0.000002 -0.000003 1.813752 -6.095841 40.866350 3.168557 -4.413343 71.339734 0.000023 -0.013067 0.160405 -0.000002 0.000001 0.000002 -19.265896 4.857615 0.223322 31.605153 -3.301990 -0.721389 -15.257068 0.374582 -1.720214 -7.963723 0.000002 -0.000000 -0.000000 0.000000 0.000000 -30.031437 -6.504399 -3.920413 40.831974 -0.760749 3.053793 -13.030736 0.227929 -5.593014 -14.428491 0.000005 0.000000 0.000000 -0.000000 0.000000 
4.592278 84.968307 3.185781 8.625291 1.835960 4.497982 11.623594 -1.443788 -2.130368 2.367179 -0.287549 -0.475652 2.368126 -0.283289 -0.470090 3.222523 0.060771 -0.065911 17.936724 0.335268 -1.062114 -0.000002 0.000000 0.000000 0.744162 8.860545 -13.072434 10.188020 -4.132558 -53.389062 0.000016 -34.081729 -0.000005 2.399697 -1.129527 -3.709362 -3.927800 -5.157635 8.886216 21.175328 38.608720 0.220454 -0.433557 -2.541182 17.212657 0.000003 0.000001 0.000002 2.291560 7.149147 -39.918788 3.899987 5.517242 -70.489936 0.003710 0.208604 -2.036074 0.000001 -0.000001 -0.000002 2.212610 7.048275 -39.787826 3.889686 5.513593 -70.382668 0.003651 0.206898 -2.019360 -0.000002 0.000002 0.000003 2.308131 7.164809 -39.712362 3.885258 5.512035 -70.336639 0.003582 0.204845 -1.999379 0.000001 -0.000002 -0.000001 1.056598 5.590586 -29.398432 2.479517 4.784771 -54.767305 0.003443 0.201135 -1.963177 0.000000 0.000005 -0.000001 1.063021 -8.437478 11.273717 1.509799 17.520612 62.483274 0.000006 25.333091 0.000010 1.853368 -2.430744 -2.486391 -4.704651 7.165784 -8.305784 21.842122 -41.053948 0.206957 0.993985 -3.525734 -18.934106 0.000010 -0.000001 0.000002 0.820013 -4.827907 29.464111 2.022569 -3.841681 55.518981 0.000865 -0.089987 1.104753 -0.000001 0.000000 -0.000001 1.831564 -6.101384 39.820723 3.117613 -4.395875 70.676359 0.000999 -0.096388 1.183392 0.000001 0.000000 -0.000008 1.776336 -6.034379 39.863562 3.125157 -4.398485 70.774741 0.001016 -0.097555 1.197672 -0.000001 0.000000 -0.000007 1.818821 -6.120425 40.131210 3.137454 -4.402747 70.935087 0.001018 -0.097227 1.193590 -0.000000 -0.000001 0.000007 -20.665965 5.390586 -1.606719 36.261573 -2.861935 -0.738765 -18.658752 0.430549 -0.217571 -7.806812 0.000001 -0.000000 -0.000000 0.000000 0.000000 -39.318431 -3.739121 -6.606591 50.160110 -2.342398 2.947434 -2.590480 -0.433816 -2.838627 -18.101388 0.000813 -0.039654 0.000000 -0.000001 0.000000 
5.991847 84.127426 3.281414 8.422247 1.312514 4.518009 12.642945 -1.828298 -2.403981 2.666949 -0.352324 -0.479918 2.668371 -0.348365 -0.468123 3.228119 0.079033 -0.028201 16.293973 0.507194 -1.021652 -0.000002 -0.000000 -0.000000 0.733825 8.568866 -13.053115 8.827746 -4.152197 -52.411071 0.000012 -33.428868 0.000002 2.438205 -1.339548 -3.351192 -3.927799 -5.157638 8.886217 21.098782 38.516352 0.300342 -0.415654 -2.589137 17.274716 0.000002 0.000001 -0.000001 2.209194 7.105389 -38.421737 3.811074 5.485074 -69.562499 0.015766 0.430011 -4.200006 -0.000001 0.000002 -0.000002 2.100349 6.963648 -38.238992 3.796747 5.479735 -69.412405 0.015597 0.427611 -4.176609 0.000001 0.000000 0.000002 2.229164 7.130045 -38.132953 3.790597 5.477439 -69.348031 0.015384 0.424764 -4.148659 -0.000001 -0.000001 0.000006 1.009207 5.476978 -27.771344 2.390423 4.720807 -53.692127 0.015036 0.419957 -4.101707 0.000000 0.000003 0.000001 1.083141 -8.368661 11.389971 -0.183800 16.817261 63.245216 -0.000000 25.487298 0.000019 2.537230 -1.969647 -3.426217 -4.704646 7.165786 -8.305784 21.708974 -40.890700 0.058806 0.995594 -3.421799 -19.083093 0.000000 -0.000003 0.000001 0.804914 -4.777925 28.005248 1.953257 -3.793250 54.477865 0.006241 -0.241414 2.964694 -0.000000 -0.000001 -0.000001 1.802370 -6.111926 38.354261 3.048661 -4.371158 69.774235 0.006706 -0.250005 3.070456 0.000001 0.000002 -0.000008 1.703266 -5.984913 38.441360 3.059059 -4.374951 69.910552 0.006785 -0.251605 3.090149 -0.000000 -0.000001 -0.000003 1.800805 -6.137888 38.787497 3.076961 -4.381434 70.145121 0.006820 -0.252165 3.096969 0.000000 -0.000000 -0.000001 -20.767918 5.704165 -2.826191 38.431552 -2.261414 -0.747941 -20.558210 0.443643 0.968192 -7.674355 -0.000001 -0.000000 0.000000 -0.000001 -0.000000 -46.043623 -1.109679 -8.997943 55.452684 -4.436345 3.240775 4.870936 -0.892868 1.987241 -19.215308 0.336900 -1.409232 -0.000000 0.000001 -0.000000 
7.042543 84.127045 3.594887 8.257683 0.632114 4.124647 13.807449 -2.197979 -2.236875 2.958894 -0.423557 -0.422007 2.960086 -0.419346 -0.403034 3.277669 0.138082 -0.033755 14.991145 1.031490 -1.232003 -0.000001 0.000000 -0.000000 0.729013 8.319840 -13.058337 7.400972 -4.239810 -51.609712 0.000018 -32.685700 0.000018 2.790463 -1.783447 -2.740834 -3.927799 -5.157638 8.886213 21.029767 38.431938 0.373339 -0.398775 -2.633179 17.331345 0.000003 0.000003 0.000000 2.099576 7.036606 -36.645324 3.705786 5.444858 -68.456971 0.040787 0.690803 -6.757058 0.000002 0.000000 -0.000002 1.966679 6.855353 -36.415802 3.687850 5.437780 -68.267775 0.040432 0.687805 -6.727558 -0.000000 -0.000002 0.000005 2.121839 7.069876 -36.281371 3.680154 5.434727 -68.186632 0.039999 0.684227 -6.692305 -0.000000 -0.000001 0.000011 0.951314 5.334655 -25.878813 2.289212 4.644995 -52.452363 0.039333 0.678433 -6.635567 -0.000000 0.000003 0.000001 1.084650 -8.289600 11.422367 -1.645894 16.955048 63.635732 0.000005 25.104992 0.000019 2.784502 -1.446910 -4.049517 -4.704650 7.165786 -8.305781 21.558529 -40.706684 -0.107620 1.003295 -3.330675 -19.213290 0.000007 -0.000002 0.000003 0.782740 -4.705555 26.140118 1.868232 -3.731231 53.182298 0.020428 -0.436326 5.363981 -0.000002 -0.000001 -0.000001 1.762842 -6.127285 36.514294 2.962702 -4.338606 68.642308 0.021423 -0.446653 5.491451 0.000002 0.000002 -0.000001 1.615912 -5.925752 36.650368 2.975509 -4.343577 68.811410 0.021647 -0.448961 5.519879 0.000001 -0.000000 -0.000005 1.764632 -6.149787 37.071641 2.998665 -4.352454 69.116986 0.021794 -0.450501 5.538902 -0.000000 -0.000002 0.000005 -20.043684 5.723954 -3.334868 38.713762 -1.544470 -0.768095 -21.419140 0.481661 1.633544 -7.669561 0.000000 0.000000 -0.000000 0.000000 0.000000 -52.412980 0.154707 -8.951333 59.352746 -5.439883 3.271679 4.555396 -0.689893 1.174575 -4.095962 0.018515 -0.255063 -0.000000 -0.000001 0.000001 
